<svg width="20" height="14" viewBox="0 0 20 14" fill="none" xmlns="http://www.w3.org/2000/svg">
<path d="M1.69629 7.26867C1.63872 7.09594 1.63867 6.90895 1.69614 6.73619C2.85311 3.2581 6.13399 0.75 10.0007 0.75C13.8656 0.75 17.1452 3.25577 18.3036 6.73134C18.3612 6.90406 18.3612 7.09106 18.3038 7.26381C17.1468 10.7419 13.8659 13.25 9.99922 13.25C6.13433 13.25 2.8547 10.7442 1.69629 7.26867Z" stroke="#0F172A" stroke-width="1.5" stroke-linecap="round" stroke-linejoin="round"/>
<path d="M12.5 7C12.5 8.38071 11.3807 9.5 10 9.5C8.61929 9.5 7.5 8.38071 7.5 7C7.5 5.61929 8.61929 4.5 10 4.5C11.3807 4.5 12.5 5.61929 12.5 7Z" stroke="#0F172A" stroke-width="1.5" stroke-linecap="round" stroke-linejoin="round"/>
</svg>
